<?xml version="1.0" standalone="no"?>
<!DOCTYPE svg PUBLIC "-//W3C//DTD SVG 20010904//EN"
 "http://www.w3.org/TR/2001/REC-SVG-20010904/DTD/svg10.dtd">
<svg version="1.0" xmlns="http://www.w3.org/2000/svg"
 width="512.000000pt" height="512.000000pt" viewBox="0 0 512.000000 512.000000"
 preserveAspectRatio="xMidYMid meet">
<metadata>
Created by potrace 1.11, written by Peter Selinger 2001-2013
</metadata>
<g transform="translate(0.000000,512.000000) scale(0.100000,-0.100000)"
fill="#000000" stroke="none">
<path d="M4249 4546 c-2 -2 -70 -7 -152 -10 -81 -4 -153 -9 -160 -11 -6 -2
-39 -6 -72 -9 -33 -4 -71 -8 -85 -11 -14 -3 -41 -8 -60 -11 -30 -5 -70 -13
-140 -29 -193 -44 -436 -149 -584 -253 -99 -68 -125 -91 -203 -172 l-63 -64
-1 119 c0 66 -1 180 -1 253 0 93 -3 132 -11 133 -16 1 -1197 1 -1219 0 -17 -1
-18 -101 -18 -1955 l0 -1954 650 0 c358 0 651 3 651 6 1 4 3 450 4 992 2 542
6 1003 8 1025 28 246 133 474 279 611 178 166 404 259 713 293 76 8 384 6 453
-3 l32 -5 1 47 c0 26 0 260 1 520 0 424 -3 506 -23 488z"/>
</g>
</svg>
